# xmcd
#
# Track frame offsets: 
#        150
#        11412
#        26316
#        43909
#        59624
#        73055
#        86597
#        98755
#        115775
#        130984
#        143846
#        162826
#        188836
#
# Disc length: 2686 seconds
#
# Revision: 0
# Processed by: cddbd v1.5.2PL0 Copyright (c) Steve Scherf et al.
# Submitted via: ExactAudioCopy v0.95b4
#
DISCID=ad0a7c0d
DTITLE=MotorDude Zydeco - Party All Night
DYEAR=1900
DGENRE=Zydeco
TTITLE0=Hey Julie
TTITLE1=Coochie Mama Two Step
TTITLE2=Green Grass
TTITLE3=Another Lonely Night
TTITLE4=Monkey
TTITLE5=All Night Love
TTITLE6=Jealous Man Two Step
TTITLE7=Jody
TTITLE8=I'm a Farmer
TTITLE9=Bernadette
TTITLE10=Bad Bad Woman
TTITLE11=Charlotte Marie
TTITLE12=What's Her Name?
EXTD=
EXTT0=
EXTT1=
EXTT2=
EXTT3=
EXTT4=
EXTT5=
EXTT6=
EXTT7=
EXTT8=
EXTT9=
EXTT10=
EXTT11=
EXTT12=
PLAYORDER=
